mtllib sugar_maple_card_v02.mtl
o SugarMapleCard_octagon
# 0.6 m card in XY; bottom-center attachment origin; front normal +Z
v -0.1680000 0.6000000 0
v 0.1680000 0.6000000 0
v 0.3000000 0.4680000 0
v 0.3000000 0.1320000 0
v 0.1680000 0.0000000 0
v -0.1680000 0.0000000 0
v -0.3000000 0.1320000 0
v -0.3000000 0.4680000 0
vt 0.2200000 1.0000000
vt 0.7800000 1.0000000
vt 1.0000000 0.7800000
vt 1.0000000 0.2200000
vt 0.7800000 0.0000000
vt 0.2200000 0.0000000
vt 0.0000000 0.2200000
vt 0.0000000 0.7800000
vn 0 0 1
usemtl sugar_maple_card_v02
f 1/1/1 3/3/1 2/2/1
f 1/1/1 4/4/1 3/3/1
f 1/1/1 5/5/1 4/4/1
f 1/1/1 6/6/1 5/5/1
f 1/1/1 7/7/1 6/6/1
f 1/1/1 8/8/1 7/7/1
